<svg width="31" height="24" fill="none" xmlns="http://www.w3.org/2000/svg"><path d="M22.256 21.808c0 .606.212 1.123.636 1.55.424.428.936.642 1.537.642.6 0 1.113-.214 1.537-.642a2.12 2.12 0 00.636-1.55c0-.605-.212-1.122-.636-1.55a2.085 2.085 0 00-1.537-.641c-.6 0-1.113.213-1.537.641a2.121 2.121 0 00-.636 1.55zm-15.738 0c0 .606.212 1.123.636 1.55.424.428.936.642 1.537.642.6 0 1.112-.214 1.536-.642a2.12 2.12 0 00.636-1.55c0-.605-.212-1.122-.636-1.55a2.085 2.085 0 00-1.536-.641c-.601 0-1.113.213-1.537.641a2.121 2.121 0 00-.636 1.55zm19.501-4.918H9.062l.37-.587c.177-.285.23-.57.16-.856l-.371-1.39 15.738-.801c.283-.036.53-.16.742-.374.212-.214.318-.481.318-.802V4.864c0-.32-.106-.588-.318-.802a1.012 1.012 0 00-.742-.32H6.571l-.212-.802c-.141-.57-.495-.856-1.06-.856H1.59c-.282 0-.53.107-.741.321a1.06 1.06 0 00-.318.775c0 .303.106.561.318.775.212.214.46.321.742.321H4.45l2.915 11.278L6.2 17.425c-.212.357-.212.722 0 1.096.212.374.53.561.954.561h18.865c.318 0 .583-.107.795-.32a1.06 1.06 0 00.318-.776 1.06 1.06 0 00-.318-.775 1.074 1.074 0 00-.795-.32z" fill="#fff"/></svg>