<svg width="31" height="25" fill="none" xmlns="http://www.w3.org/2000/svg"><g clip-path="url(#clip0)"><path d="M22.256 21.898c0 .608.212 1.127.636 1.556.424.43.936.644 1.537.644.6 0 1.113-.214 1.537-.644.424-.43.636-.948.636-1.556 0-.609-.212-1.127-.636-1.557a2.08 2.08 0 00-1.537-.644c-.6 0-1.113.215-1.537.644-.424.43-.636.948-.636 1.557zm-15.738 0c0 .608.212 1.127.636 1.556.424.43.936.644 1.537.644.6 0 1.112-.214 1.536-.644.424-.43.636-.948.636-1.556 0-.609-.212-1.127-.636-1.557a2.08 2.08 0 00-1.536-.644c-.601 0-1.113.215-1.537.644-.424.43-.636.948-.636 1.557zm19.501-4.938H9.062l.37-.59c.177-.287.23-.573.16-.86l-.371-1.395 15.738-.805c.283-.036.53-.16.742-.375a1.1 1.1 0 00.318-.806V4.885a1.1 1.1 0 00-.318-.805 1.01 1.01 0 00-.742-.322H6.571l-.212-.805c-.141-.573-.495-.859-1.06-.859H1.59c-.282 0-.53.107-.741.322a1.067 1.067 0 00-.318.778c0 .304.106.564.318.779.212.214.46.322.742.322H4.45l2.915 11.324L6.2 17.497c-.212.357-.212.724 0 1.1.212.376.53.563.954.563h18.865c.318 0 .583-.107.795-.322.212-.214.318-.474.318-.778 0-.304-.106-.563-.318-.778a1.072 1.072 0 00-.795-.322z"/></g><defs><clipPath id="clip0"><path d="M0 0h31v24.098H0z"/></clipPath></defs></svg>