<svg width="26" height="23" fill="none" xmlns="http://www.w3.org/2000/svg"><path d="M20.252 19.697c0 .638.227 1.193.675 1.645.448.452 1 .682 1.635.682a2.23 2.23 0 001.635-.682 2.263 2.263 0 00.675-1.645c0-.638-.227-1.193-.675-1.645a2.23 2.23 0 00-1.635-.682 2.23 2.23 0 00-1.635.682 2.263 2.263 0 00-.675 1.645zm-14.2 0c0 .638.228 1.193.675 1.645.448.452 1 .682 1.636.682a2.23 2.23 0 001.635-.682 2.263 2.263 0 00.675-1.645c0-.638-.228-1.193-.675-1.645a2.23 2.23 0 00-1.635-.682 2.23 2.23 0 00-1.636.682 2.263 2.263 0 00-.675 1.645zm17.944-5.689H9.332c.2-.324.272-.676.183-1.036h0l-.002-.006-.223-.836 13.768-.702h.013l.013-.002a1.47 1.47 0 00.874-.438c.26-.263.388-.595.388-.97v-6.51c0-.375-.128-.707-.388-.97a1.263 1.263 0 00-.918-.393H6.72l-.122-.46c-.077-.309-.22-.576-.454-.764C5.908.73 5.618.65 5.303.65H1.956c-.355 0-.666.139-.918.393-.256.259-.388.58-.388.946 0 .365.132.686.388.945.252.255.563.393.918.393h2.31l2.525 9.768-.973 1.56h0l-.003.007c-.259.434-.254.898-.004 1.34.252.445.654.683 1.165.683h17.02c.374 0 .705-.13.966-.393.256-.259.388-.58.388-.945s-.132-.687-.388-.946a1.318 1.318 0 00-.966-.393z" stroke="red" stroke-width=".7"/></svg>