<svg width="24" height="24" fill="none" xmlns="http://www.w3.org/2000/svg"><g clip-path="url(#clip0)"><path d="M12 .049c-6.627 0-12 5.373-12 12 0 5.944 4.326 10.867 9.999 11.82v-9.317H7.104V11.2h2.895V8.728c0-2.868 1.752-4.431 4.31-4.431 1.226 0 2.28.09 2.585.131v2.998l-1.775.001c-1.391 0-1.66.661-1.66 1.632v2.14h3.32l-.432 3.352H13.46v9.398C19.397 23.226 24 18.179 24 12.045 24 5.423 18.627.05 12 .05z" fill="#fff"/></g><defs><clipPath id="clip0"><path fill="#fff" d="M0 0h24v24H0z"/></clipPath></defs></svg>