<svg width="18" height="18" fill="none" xmlns="http://www.w3.org/2000/svg"><g clip-path="url(#clip0)"><path d="M17.006 0H.993A.993.993 0 000 .994v16.013c0 .549.445.993.994.993h16.012a.993.993 0 00.994-.993V.992A.993.993 0 0017.006 0z" fill="#4267B2"/><path d="M12.428 18v-6.961h2.346l.352-2.725h-2.698V6.58c0-.787.218-1.323 1.347-1.323h1.43v-2.43a19.227 19.227 0 00-2.096-.108c-2.074 0-3.494 1.266-3.494 3.591v2.005H7.277v2.725h2.338V18h2.813z" fill="#fff"/></g><defs><clipPath id="clip0"><path fill="#fff" d="M0 0h18v18H0z"/></clipPath></defs></svg>