<svg width="18" height="18" fill="none" xmlns="http://www.w3.org/2000/svg"><g clip-path="url(#clip0)"><path d="M3.99 10.877l-.627 2.34-2.29.048A8.96 8.96 0 010 9c0-1.493.363-2.9 1.006-4.14l2.04.375.893 2.026A5.35 5.35 0 003.649 9c.001.66.12 1.293.34 1.877z" fill="#FBBB00"/><path d="M17.843 7.319a9.021 9.021 0 01-.04 3.56 8.998 8.998 0 01-3.169 5.14l-2.568-.132-.364-2.269a5.365 5.365 0 002.308-2.739H9.198V7.32h8.645z" fill="#518EF8"/><path d="M14.634 16.018A8.962 8.962 0 019 18a8.999 8.999 0 01-7.927-4.735l2.916-2.388a5.351 5.351 0 007.713 2.741l2.932 2.4z" fill="#28B446"/><path d="M14.745 2.072l-2.916 2.387A5.353 5.353 0 003.94 7.26l-2.932-2.4A8.998 8.998 0 019 0c2.184 0 4.186.778 5.745 2.072z" fill="#F14336"/></g><defs><clipPath id="clip0"><path fill="#fff" d="M0 0h18v18H0z"/></clipPath></defs></svg>