<svg width="28" height="26" fill="none" xmlns="http://www.w3.org/2000/svg"><g clip-path="url(#clip0)" fill="#fff"><path d="M26.834 19.5H1.167c-.316 0-.59.107-.82.322a1.001 1.001 0 00-.347.761v2.167c0 .294.115.547.346.762.231.214.505.322.82.322h25.668c.316 0 .589-.108.82-.322A1.01 1.01 0 0028 22.75v-2.167c0-.293-.115-.547-.346-.761a1.166 1.166 0 00-.82-.322zm.82-17.012a1.165 1.165 0 00-.82-.321H1.167c-.316 0-.59.107-.82.321A1 1 0 000 3.25v2.167c0 .293.115.547.346.761.231.215.505.322.82.322h25.668c.316 0 .589-.107.82-.322.23-.214.346-.468.346-.761V3.25c0-.294-.115-.547-.346-.762zm-.82 8.345H1.167c-.316 0-.59.107-.82.322a1.002 1.002 0 00-.347.762v2.166c0 .294.115.548.346.762.231.214.505.322.82.322h25.668c.316 0 .589-.108.82-.322.23-.214.346-.468.346-.762v-2.166c0-.294-.115-.548-.346-.762a1.164 1.164 0 00-.82-.322z"/></g><defs><clipPath id="clip0"><path fill="#fff" d="M0 0h28v26H0z"/></clipPath></defs></svg>