<svg width="28" height="26" fill="none" xmlns="http://www.w3.org/2000/svg"><path d="M7.762 18.353H.337c-.091 0-.17.19-.237.568-.067.378-.1.826-.1 1.344v3.823c0 .518.033.966.1 1.344.067.378.146.568.238.568h7.424c.091 0 .17-.19.237-.568.067-.378.1-.826.1-1.344v-3.823c0-.518-.033-.966-.1-1.344-.067-.378-.146-.568-.237-.568zm0-9.176H.337c-.091 0-.17.19-.237.567-.067.378-.1.827-.1 1.344v3.824c0 .518.033.966.1 1.344.067.378.146.568.238.568h7.424c.091 0 .17-.19.237-.568.067-.378.1-.826.1-1.344v-3.824a7.83 7.83 0 00-.1-1.344c-.067-.378-.146-.567-.237-.567zm0-9.177H.337C.246 0 .167.19.1.568.033.946 0 1.394 0 1.912v3.823c0 .518.033.966.1 1.345.067.378.146.567.238.567h7.424c.091 0 .17-.19.237-.567.067-.379.1-.827.1-1.345V1.912c0-.518-.033-.966-.1-1.344C7.932.19 7.853 0 7.762 0zm9.95 18.353h-7.424c-.091 0-.17.19-.237.568-.067.378-.1.826-.1 1.344v3.823c0 .518.033.966.1 1.344.066.378.146.568.237.568h7.424c.092 0 .17-.19.238-.568.066-.378.1-.826.1-1.344v-3.823c0-.518-.034-.966-.1-1.344-.067-.378-.146-.568-.238-.568zm0-9.176h-7.424c-.091 0-.17.19-.237.568-.067.378-.1.826-.1 1.344v3.823c0 .518.033.966.1 1.344.066.378.146.568.237.568h7.424c.092 0 .17-.19.238-.568.066-.378.1-.826.1-1.344V11.09c0-.518-.034-.966-.1-1.344-.067-.378-.146-.568-.238-.568zm0-9.177h-7.424c-.091 0-.17.19-.237.568-.067.378-.1.826-.1 1.344v3.824c0 .517.033.965.1 1.344.066.378.146.567.237.567h7.424c.092 0 .17-.19.238-.567.066-.379.1-.826.1-1.344V1.912c0-.518-.034-.966-.1-1.344C17.883.19 17.803 0 17.712 0zm9.951 18.353h-7.425c-.091 0-.17.19-.237.568-.067.378-.1.826-.1 1.344v3.823c0 .518.033.966.1 1.344.067.378.146.568.237.568h7.425c.091 0 .17-.19.237-.568.067-.378.1-.826.1-1.344v-3.823c0-.518-.033-.966-.1-1.344-.067-.378-.146-.568-.237-.568zm0-9.176h-7.425c-.091 0-.17.19-.237.568-.067.378-.1.826-.1 1.344v3.823c0 .518.033.966.1 1.344.067.378.146.568.237.568h7.425c.091 0 .17-.19.237-.568.067-.378.1-.826.1-1.344V11.09c0-.518-.033-.966-.1-1.344-.067-.378-.146-.568-.237-.568zm0-9.177h-7.425c-.091 0-.17.19-.237.568-.067.378-.1.826-.1 1.344v3.824c0 .517.033.965.1 1.344.067.378.146.567.237.567h7.425c.091 0 .17-.19.237-.567.067-.379.1-.826.1-1.344V1.912c0-.518-.033-.966-.1-1.344C27.833.19 27.754 0 27.663 0z" fill="#fff"/></svg>