<svg width="30" height="28" fill="none" xmlns="http://www.w3.org/2000/svg"><g clip-path="url(#clip0)" fill="#fff"><path d="M28.75 21H1.25c-.339 0-.632.116-.879.346a1.088 1.088 0 00-.371.82V24.5c0 .316.124.59.371.82.248.231.54.347.88.347h27.5c.338 0 .63-.116.878-.347.247-.23.371-.504.371-.82v-2.333c0-.316-.123-.59-.37-.82a1.246 1.246 0 00-.88-.347zm.88-18.32a1.245 1.245 0 00-.88-.347H1.25c-.339 0-.632.116-.879.347C.124 2.91 0 3.184 0 3.5v2.333c0 .316.124.59.371.82.248.232.54.347.88.347h27.5c.338 0 .63-.115.878-.346.247-.231.371-.505.371-.82V3.5c0-.316-.123-.59-.37-.82zm-.88 8.987H1.25c-.339 0-.632.115-.879.346a1.088 1.088 0 00-.371.82v2.334c0 .316.124.59.371.82.248.23.54.347.88.347h27.5c.338 0 .63-.116.878-.347.247-.23.371-.504.371-.82v-2.334c0-.316-.123-.589-.37-.82a1.245 1.245 0 00-.88-.346z"/></g><defs><clipPath id="clip0"><path fill="#fff" d="M0 0h30v28H0z"/></clipPath></defs></svg>