<svg width="28" height="28" fill="none" xmlns="http://www.w3.org/2000/svg"><path d="M7.762 19.764H.337c-.091 0-.17.205-.237.612-.067.407-.1.89-.1 1.447v4.118c0 .558.033 1.04.1 1.448.067.407.146.61.238.61h7.424c.091 0 .17-.203.237-.61.067-.408.1-.89.1-1.448v-4.118a9.05 9.05 0 00-.1-1.447c-.067-.407-.146-.612-.237-.612zm0-9.882H.337c-.091 0-.17.205-.237.612-.067.407-.1.89-.1 1.447v4.118c0 .558.033 1.04.1 1.447.067.408.146.612.238.612h7.424c.091 0 .17-.204.237-.611.067-.408.1-.89.1-1.448v-4.118a9.05 9.05 0 00-.1-1.447c-.067-.407-.146-.612-.237-.612zm0-9.882H.337C.246 0 .167.204.1.612c-.067.407-.1.89-.1 1.447v4.118c0 .557.033 1.04.1 1.447.067.407.146.611.238.611h7.424c.091 0 .17-.204.237-.61.067-.408.1-.89.1-1.448V2.059a9.04 9.04 0 00-.1-1.447C7.932.204 7.853 0 7.762 0zm9.95 19.765h-7.424c-.091 0-.17.204-.237.611-.067.407-.1.89-.1 1.448v4.117c0 .558.033 1.04.1 1.448.066.407.146.61.237.61h7.424c.092 0 .17-.203.238-.61.066-.408.1-.89.1-1.448v-4.117c0-.558-.034-1.04-.1-1.448-.067-.407-.146-.611-.238-.611zm0-9.882h-7.424c-.091 0-.17.204-.237.611-.067.407-.1.89-.1 1.447v4.118c0 .558.033 1.04.1 1.448.066.407.146.61.237.61h7.424c.092 0 .17-.203.238-.61.066-.408.1-.89.1-1.448v-4.118c0-.557-.034-1.04-.1-1.447-.067-.407-.146-.611-.238-.611zm0-9.883h-7.424c-.091 0-.17.205-.237.612-.067.407-.1.89-.1 1.447v4.118c0 .557.033 1.04.1 1.447.066.407.146.612.237.612h7.424c.092 0 .17-.205.238-.612.066-.407.1-.89.1-1.447V2.059c0-.557-.034-1.04-.1-1.447C17.883.205 17.803 0 17.712 0zm9.951 19.765h-7.425c-.091 0-.17.204-.237.611-.067.407-.1.89-.1 1.448v4.117c0 .558.033 1.04.1 1.448.067.407.146.61.237.61h7.425c.091 0 .17-.203.237-.61.067-.408.1-.89.1-1.448v-4.117c0-.558-.033-1.04-.1-1.448-.067-.407-.146-.611-.237-.611zm0-9.882h-7.425c-.091 0-.17.204-.237.611-.067.407-.1.89-.1 1.447v4.118c0 .558.033 1.04.1 1.448.067.407.146.61.237.61h7.425c.091 0 .17-.203.237-.61.067-.408.1-.89.1-1.448v-4.118a9.05 9.05 0 00-.1-1.447c-.067-.407-.146-.611-.237-.611zm0-9.883h-7.425c-.091 0-.17.205-.237.612-.067.407-.1.89-.1 1.447v4.118c0 .557.033 1.04.1 1.447.067.407.146.612.237.612h7.425c.091 0 .17-.205.237-.612.067-.407.1-.89.1-1.447V2.059a9.05 9.05 0 00-.1-1.447C27.833.205 27.754 0 27.663 0z" fill="#fff"/></svg>